HIERARCHY
ROOT hip
{
  OFFSET 0 0 0
  CHANNELS 6 Xposition Yposition Zposition Zrotation Yrotation Xrotation
  JOINT abdomen
  {
    OFFSET 0 20.6881 -0.73152
    CHANNELS 3 Zrotation Xrotation Yrotation
    JOINT chest
    {
      OFFSET 0 11.7043 -0.48768
      CHANNELS 3 Zrotation Xrotation Yrotation
      JOINT neck
      {
        OFFSET 0 22.1894 -2.19456
        CHANNELS 3 Zrotation Xrotation Yrotation
        JOINT head
        {
          OFFSET -0.24384 7.07133 1.2192
          CHANNELS 3 Zrotation Xrotation Yrotation
          JOINT leftEye
          {
            OFFSET 4.14528 8.04674 8.04672
            CHANNELS 3 Zrotation Xrotation Yrotation
            End Site
            {
              OFFSET 1 0 0
            }
          }
          JOINT rightEye
          {
            OFFSET -3.6576 8.04674 8.04672
            CHANNELS 3 Zrotation Xrotation Yrotation
            End Site
            {
              OFFSET 1 0 0
            }
          }
        }
      }
      JOINT rCollar
      {
        OFFSET -2.68224 19.2634 -4.8768
        CHANNELS 3 Zrotation Xrotation Yrotation
        JOINT rShldr
        {
          OFFSET -8.77824 -1.95073 1.46304
          CHANNELS 3 Zrotation Xrotation Yrotation
          JOINT rForeArm
          {
            OFFSET -28.1742 -1.7115 0.48768
            CHANNELS 3 Zrotation Xrotation Yrotation
            JOINT rHand
            {
              OFFSET -22.5879 0.773209 7.07136
              CHANNELS 3 Zrotation Xrotation Yrotation
              JOINT rThumb1
              {
                OFFSET -1.2192 -0.487915 3.41376
                CHANNELS 3 Zrotation Xrotation Yrotation
                JOINT rThumb2
                {
                  OFFSET -3.37035 -0.52449 3.41376
                  CHANNELS 3 Zrotation Xrotation Yrotation
                  End Site
                  {
                    OFFSET -1.78271 -1.18214 1.43049
                  }
                }
              }
              JOINT rIndex1
              {
                OFFSET -7.75947 0.938293 5.60832
                CHANNELS 3 Zrotation Xrotation Yrotation
                JOINT rIndex2
                {
                  OFFSET -2.54057 -0.884171 1.56538
                  CHANNELS 3 Zrotation Xrotation Yrotation
                  End Site
                  {
                    OFFSET -1.62519 -0.234802 1.16502
                  }
                }
              }
              JOINT rMid1
              {
                OFFSET -8.24714 1.18213 3.41376
                CHANNELS 3 Zrotation Xrotation Yrotation
                JOINT rMid2
                {
                  OFFSET -3.10165 -0.590103 1.0647
                  CHANNELS 3 Zrotation Xrotation Yrotation
                  End Site
                  {
                    OFFSET -2.48547 -0.328903 0.83742
                  }
                }
              }
              JOINT rRing1
              {
                OFFSET -8.82822 0.546677 1.51678
                CHANNELS 3 Zrotation Xrotation Yrotation
                JOINT rRing2
                {
                  OFFSET -2.60934 -0.819778 -0.0198488
                  CHANNELS 3 Zrotation Xrotation Yrotation
                  End Site
                  {
                    OFFSET -2.33842 -0.294052 0.168128
                  }
                }
              }
              JOINT rPinky1
              {
                OFFSET -8.27202 -0.0477905 -0.4584
                CHANNELS 3 Zrotation Xrotation Yrotation
                JOINT rPinky2
                {
                  OFFSET -1.82734 -0.647385 -0.700984
                  CHANNELS 3 Zrotation Xrotation Yrotation
                  End Site
                  {
                    OFFSET -1.69225 -0.51767 -0.607171
                  }
                }
              }
            }
          }
        }
      }
      JOINT lCollar
      {
        OFFSET 2.68224 19.2634 -4.8768
        CHANNELS 3 Zrotation Xrotation Yrotation
        JOINT lShldr
        {
          OFFSET 8.77824 -1.95073 1.46304
          CHANNELS 3 Zrotation Xrotation Yrotation
          JOINT lForeArm
          {
            OFFSET 28.1742 -1.7115 0.48768
            CHANNELS 3 Zrotation Xrotation Yrotation
            JOINT lHand
            {
              OFFSET 22.5879 0.773209 7.07136
              CHANNELS 3 Zrotation Xrotation Yrotation
              JOINT lThumb1
              {
                OFFSET 1.2192 -0.487915 3.41376
                CHANNELS 3 Zrotation Xrotation Yrotation
                JOINT lThumb2
                {
                  OFFSET 3.37035 -0.52449 3.41376
                  CHANNELS 3 Zrotation Xrotation Yrotation
                  End Site
                  {
                    OFFSET 1.78271 -1.18214 1.43049
                  }
                }
              }
              JOINT lIndex1
              {
                OFFSET 7.75947 0.938293 5.60832
                CHANNELS 3 Zrotation Xrotation Yrotation
                JOINT lIndex2
                {
                  OFFSET 2.54057 -0.884171 1.56538
                  CHANNELS 3 Zrotation Xrotation Yrotation
                  End Site
                  {
                    OFFSET 1.62519 -0.234802 1.16502
                  }
                }
              }
              JOINT lMid1
              {
                OFFSET 8.24714 1.18213 3.41376
                CHANNELS 3 Zrotation Xrotation Yrotation
                JOINT lMid2
                {
                  OFFSET 3.10165 -0.590103 1.0647
                  CHANNELS 3 Zrotation Xrotation Yrotation
                  End Site
                  {
                    OFFSET 2.48547 -0.328903 0.83742
                  }
                }
              }
              JOINT lRing1
              {
                OFFSET 8.82822 0.546677 1.51678
                CHANNELS 3 Zrotation Xrotation Yrotation
                JOINT lRing2
                {
                  OFFSET 2.60934 -0.819778 -0.0198488
                  CHANNELS 3 Zrotation Xrotation Yrotation
                  End Site
                  {
                    OFFSET 2.33842 -0.294052 0.168128
                  }
                }
              }
              JOINT lPinky1
              {
                OFFSET 8.27202 -0.0477905 -0.4584
                CHANNELS 3 Zrotation Xrotation Yrotation
                JOINT lPinky2
                {
                  OFFSET 1.82734 -0.647385 -0.700984
                  CHANNELS 3 Zrotation Xrotation Yrotation
                  End Site
                  {
                    OFFSET 1.69225 -0.51767 -0.607171
                  }
                }
              }
            }
          }
        }
      }
    }
  }
  JOINT rButtock
  {
    OFFSET -8.77824 4.35084 1.2192
    CHANNELS 3 Zrotation Xrotation Yrotation
    JOINT rThigh
    {
      OFFSET 0 -1.70687 -2.19456
      CHANNELS 3 Zrotation Xrotation Yrotation
      JOINT rShin
      {
        OFFSET 0 -36.8199 0.73152
        CHANNELS 3 Zrotation Xrotation Yrotation
        JOINT rFoot
        {
          OFFSET 0.73152 -45.1104 -5.12064
          CHANNELS 3 Zrotation Xrotation Yrotation
          End Site
          {
            OFFSET -1.1221 -3.69964 12.103
          }
        }
      }
    }
  }
  JOINT lButtock
  {
    OFFSET 8.77824 4.35084 1.2192
    CHANNELS 3 Zrotation Xrotation Yrotation
    JOINT lThigh
    {
      OFFSET 0 -1.70687 -2.19456
      CHANNELS 3 Zrotation Xrotation Yrotation
      JOINT lShin
      {
        OFFSET 0 -36.8199 0.73152
        CHANNELS 3 Zrotation Xrotation Yrotation
        JOINT lFoot
        {
          OFFSET -0.73152 -45.1104 -5.12064
          CHANNELS 3 Zrotation Xrotation Yrotation
          End Site
          {
            OFFSET 1.1221 -3.69964 12.103
          }
        }
      }
    }
  }
}
MOTION
Frames:	8
Frame Time:	0.00833333
-4.17048 65.1 21.8946 -179.154 -106.646 902.987 -0.322485 0.467405 13.4081 -2.7413 -10.9153 3.49748 11.2824 5.17489 14.1039 -1.49742 -5.68401 25.2837 -0.0 0.0 0.0 -0.0 0.0 0.0 9.81276e-14 1.34427e-13 3.01081e-13 -10.1943 62.7363 36.3241 -23.3969 -50.1385 105.14 -2.46903 -39.9904 -6.77234 -9.41801e-11 -8.43061e-09 -1.11571e-09 -1.31133e-10 -1.49853e-08 -1.92486e-09 -9.41718e-11 -8.43061e-09 -1.11572e-09 7.73091 5.47488 0.417314 -9.41819e-11 -8.43062e-09 -1.11571e-09 2.90554 0.965183 0.102902 -9.41754e-11 -8.43062e-09 -1.11572e-09 10.2786 0.731801 0.0259123 -9.41862e-11 -8.43061e-09 -1.11571e-09 2.22167 -0.733487 -0.20892 9.7955e-14 1.34429e-13 3.00805e-13 3.7643 23.2074 -21.4914 13.9751 -6.93399 -25.5051 0.000506245 0.377774 -0.0530951 -4.7044e-10 -3.36218e-09 2.03842e-09 -8.07787e-10 -5.84778e-09 3.52398e-09 -4.70445e-10 -3.36218e-09 2.03842e-09 -7.73091 5.47488 -0.417314 -4.70441e-10 -3.36218e-09 2.03842e-09 -2.90554 0.965183 -0.102902 -4.70442e-10 -3.36218e-09 2.03842e-09 -10.2786 0.731801 -0.0259123 -4.70437e-10 -3.36218e-09 2.03841e-09 -2.22167 -0.733487 0.20892 -2.03217e-16 0.0 -3.88251e-19 -5.61735 -24.8865 -27.2377 -1.30776 63.3288 1.77021 -0.258309 1.05765 -11.0763 2.03217e-16 0.0 3.88251e-19 17.3804 -34.5624 26.0647 1.22061 60.7526 -1.15286 -0.452697 -2.93778 -20.8312
-4.092 64.9839 22.7704 -178.533 -106.606 902.027 -0.576421 0.827922 13.5888 -2.97718 -10.8987 3.51891 11.2934 5.26603 14.038 -1.30457 -5.49292 25.1664 -0.0 0.0 0.0 -0.0 0.0 0.0 8.66318e-14 1.57564e-13 2.56405e-13 -11.2472 62.7896 37.7772 -23.6093 -49.8845 104.498 -2.30943 -38.9438 -6.52261 4.64934e-10 -1.66627e-08 -1.47888e-09 8.43322e-10 -2.91842e-08 -2.52998e-09 4.64941e-10 -1.66627e-08 -1.47888e-09 7.73091 5.47488 0.417314 4.64932e-10 -1.66627e-08 -1.47888e-09 2.90554 0.965183 0.102902 4.64936e-10 -1.66627e-08 -1.47888e-09 10.2786 0.731801 0.0259123 4.64927e-10 -1.66627e-08 -1.47887e-09 2.22167 -0.733487 -0.20892 8.63949e-14 1.5757e-13 2.5605e-13 3.85935 23.0778 -21.7665 13.9385 -6.90481 -25.431 0.000690909 0.618529 -0.086936 -4.04383e-11 -8.15586e-09 2.9939e-09 -6.11992e-11 -1.41544e-08 5.17631e-09 -4.04442e-11 -8.15586e-09 2.9939e-09 -7.73091 5.47488 -0.417314 -4.04399e-11 -8.15586e-09 2.99389e-09 -2.90554 0.965183 -0.102902 -4.04425e-11 -8.15587e-09 2.99389e-09 -10.2786 0.731801 -0.0259123 -4.0436e-11 -8.15586e-09 2.99388e-09 -2.22167 -0.733487 0.20892 -2.03217e-16 0.0 -3.88251e-19 -5.14841 -24.2284 -25.3343 -1.25912 62.7591 1.72914 -0.174776 1.07952 -13.9919 2.03217e-16 0.0 3.88251e-19 18.0429 -34.4507 26.663 1.32806 62.201 -1.27847 -0.0506819 -1.57134 -23.2426
-4.0303 64.8824 23.6496 -177.917 -106.562 901.06 -0.70382 1.16044 13.719 -3.16902 -10.8931 3.53513 11.2915 5.35408 13.9836 -1.08721 -5.32198 25.075 -0.0 0.0 0.0 -0.0 0.0 0.0 7.36872e-14 1.53656e-13 2.22838e-13 -12.2769 62.8131 39.2 -23.8155 -49.6305 103.863 -2.15247 -37.8562 -6.27126 7.51002e-10 -2.06569e-08 -1.74881e-09 1.34369e-09 -3.61077e-08 -2.98487e-09 7.51008e-10 -2.06569e-08 -1.74882e-09 7.73091 5.47488 0.417314 7.51001e-10 -2.06569e-08 -1.74881e-09 2.90554 0.965183 0.102902 7.51003e-10 -2.06569e-08 -1.74881e-09 10.2786 0.731801 0.0259123 7.50994e-10 -2.06569e-08 -1.7488e-09 2.22167 -0.733487 -0.20892 7.34182e-14 1.53664e-13 2.2244e-13 3.88416 22.9062 -21.9578 13.8948 -6.86995 -25.3428 0.0010143 0.909362 -0.127813 1.56575e-10 -1.04254e-08 3.46663e-09 2.812e-10 -1.80895e-08 5.99404e-09 1.56569e-10 -1.04254e-08 3.46663e-09 -7.73091 5.47488 -0.417314 1.56573e-10 -1.04254e-08 3.46663e-09 -2.90554 0.965183 -0.102902 1.56569e-10 -1.04254e-08 3.46663e-09 -10.2786 0.731801 -0.0259123 1.56578e-10 -1.04255e-08 3.46662e-09 -2.22167 -0.733487 0.20892 -2.03217e-16 0.0 -3.88251e-19 -4.79527 -23.6172 -23.7549 -1.2223 62.334 1.70581 -0.0656075 1.1597 -16.575 2.03217e-16 0.0 3.88251e-19 18.7012 -34.3538 26.9776 1.41757 63.3115 -1.38791 0.109925 -0.996174 -24.5593
-3.98716 64.7759 24.5333 -177.38 -106.525 900.168 -0.659132 1.48646 13.7858 -3.29986 -10.9088 3.54626 11.2706 5.44176 13.9436 -0.832754 -5.17673 25.0171 -0.0 0.0 0.0 -0.0 0.0 0.0 5.51517e-14 1.00884e-13 1.94623e-13 -13.3058 62.7943 40.6076 -24.0202 -49.3723 103.221 -1.99467 -36.6935 -6.0114 5.67561e-10 -1.72285e-08 -1.90126e-09 1.0301e-09 -3.02961e-08 -3.25484e-09 5.67568e-10 -1.72285e-08 -1.90127e-09 7.73091 5.47488 0.417314 5.67561e-10 -1.72285e-08 -1.90126e-09 2.90554 0.965183 0.102902 5.67565e-10 -1.72285e-08 -1.90126e-09 10.2786 0.731801 0.0259123 5.67552e-10 -1.72285e-08 -1.90125e-09 2.22167 -0.733487 -0.20892 5.49006e-14 1.00888e-13 1.94238e-13 3.81672 22.6599 -22.0605 13.8386 -6.82501 -25.2298 0.00177022 1.29484 -0.181999 -1.86042e-11 -8.47627e-09 3.12871e-09 -2.22775e-11 -1.47176e-08 5.41031e-09 -1.86099e-11 -8.47627e-09 3.12871e-09 -7.73091 5.47488 -0.417314 -1.86067e-11 -8.47628e-09 3.1287e-09 -2.90554 0.965183 -0.102902 -1.86132e-11 -8.47627e-09 3.1287e-09 -10.2786 0.731801 -0.0259123 -1.85997e-11 -8.47628e-09 3.1287e-09 -2.22167 -0.733487 0.20892 -2.03217e-16 0.0 -3.88251e-19 -4.51912 -23.0807 -22.581 -1.19981 62.0953 1.70172 0.0867414 1.33034 -18.7843 2.03217e-16 0.0 3.88251e-19 19.3916 -34.2995 26.9906 1.47943 64.0587 -1.46522 -0.223819 -1.53433 -24.5431
-3.95686 64.6557 25.4222 -176.967 -106.491 899.413 -0.517924 1.81973 13.8092 -3.3817 -10.9441 3.55441 11.2415 5.53695 13.9171 -0.546319 -5.05922 24.9893 -0.0 0.0 0.0 -0.0 0.0 0.0 3.33969e-14 1.64744e-14 1.72896e-13 -14.3399 62.7286 42.0139 -24.2244 -49.1059 102.568 -1.84295 -35.5075 -5.7544 9.94741e-11 -9.24218e-09 -1.9995e-09 2.23512e-10 -1.66654e-08 -3.44181e-09 9.94816e-11 -9.24219e-09 -1.9995e-09 7.73091 5.47488 0.417314 9.94752e-11 -9.24219e-09 -1.99949e-09 2.90554 0.965183 0.102902 9.94817e-11 -9.24219e-09 -1.99949e-09 10.2786 0.731801 0.0259123 9.94628e-11 -9.24219e-09 -1.99949e-09 2.22167 -0.733487 -0.20892 3.31951e-14 1.64734e-14 1.72557e-13 3.68336 22.3609 -22.087 13.7787 -6.77741 -25.1098 0.00324048 1.73642 -0.244097 -4.22035e-10 -3.99969e-09 2.31633e-09 -7.21835e-10 -6.96828e-09 4.00639e-09 -4.22039e-10 -3.9997e-09 2.31633e-09 -7.73091 5.47488 -0.417314 -4.22038e-10 -3.9997e-09 2.31633e-09 -2.90554 0.965183 -0.102902 -4.22047e-10 -3.99968e-09 2.31633e-09 -10.2786 0.731801 -0.0259123 -4.22027e-10 -3.9997e-09 2.31632e-09 -2.22167 -0.733487 0.20892 -2.03217e-16 0.0 -3.88251e-19 -4.33678 -22.5753 -21.6754 -1.18763 62.0184 1.71506 0.287884 1.56638 -20.8174 2.03217e-16 0.0 3.88251e-19 20.0999 -34.2373 26.7446 1.51487 64.5008 -1.51732 -0.86972 -2.8292 -23.5765
-3.93244 64.5379 26.3168 -176.716 -106.459 898.848 -0.322251 2.10247 13.8027 -3.44366 -10.9767 3.5577 11.2098 5.62752 13.8981 -0.253526 -4.95602 24.9763 -0.0 0.0 0.0 -0.0 0.0 0.0 1.59639e-14 -6.34001e-14 1.69754e-13 -15.308 62.6514 43.3595 -24.4173 -48.8436 101.938 -1.70225 -34.3361 -5.50835 -3.49865e-10 -1.71514e-09 -2.05064e-09 -5.52075e-10 -3.81291e-09 -3.54744e-09 -3.49857e-10 -1.71514e-09 -2.05064e-09 7.73091 5.47488 0.417314 -3.49863e-10 -1.71514e-09 -2.05064e-09 2.90554 0.965183 0.102902 -3.49853e-10 -1.71514e-09 -2.05063e-09 10.2786 0.731801 0.0259123 -3.49878e-10 -1.71514e-09 -2.05063e-09 2.22167 -0.733487 -0.20892 1.58167e-14 -6.34064e-14 1.69469e-13 3.51606 22.0666 -22.0405 13.7207 -6.7314 -24.9937 0.00541065 2.16272 -0.304085 -8.48461e-10 4.59805e-10 1.51518e-09 -1.46102e-09 7.51041e-10 2.62177e-09 -8.48464e-10 4.59804e-10 1.51518e-09 -7.73091 5.47488 -0.417314 -8.48464e-10 4.59806e-10 1.51518e-09 -2.90554 0.965183 -0.102902 -8.48477e-10 4.59824e-10 1.51518e-09 -10.2786 0.731801 -0.0259123 -8.48451e-10 4.59806e-10 1.51517e-09 -2.22167 -0.733487 0.20892 -2.03217e-16 0.0 -3.88251e-19 -4.25193 -22.1358 -20.9298 -1.17986 62.0275 1.74067 0.514882 1.80883 -22.6205 2.03217e-16 0.0 3.88251e-19 20.7602 -34.1449 26.2522 1.52245 64.6519 -1.55388 -1.51057 -4.38008 -21.9043
-3.90507 64.4448 27.2202 -176.624 -106.424 898.49 -0.114556 2.27677 13.7795 -3.51487 -10.9845 3.55424 11.1811 5.70137 13.881 0.0201673 -4.85364 24.9632 -0.0 0.0 0.0 -0.0 0.0 0.0 1.03936e-14 -1.02569e-13 1.97294e-13 -16.1465 62.6004 44.5925 -24.5897 -48.5993 101.362 -1.57594 -33.2167 -5.28017 -4.7706e-10 3.35338e-10 -2.06181e-09 -7.72672e-10 -3.35781e-10 -3.57337e-09 -4.77052e-10 3.35334e-10 -2.06182e-09 7.73091 5.47488 0.417314 -4.77058e-10 3.35332e-10 -2.06181e-09 2.90554 0.965183 0.102902 -4.77046e-10 3.35332e-10 -2.06181e-09 10.2786 0.731801 0.0259123 -4.77074e-10 3.35332e-10 -2.0618e-09 2.22167 -0.733487 -0.20892 1.02807e-14 -1.02578e-13 1.97045e-13 3.34669 21.8344 -21.9235 13.67 -6.69123 -24.8924 0.00768619 2.50239 -0.351914 -1.09263e-09 2.35774e-09 1.21094e-09 -1.88338e-09 4.03279e-09 2.09592e-09 -1.09263e-09 2.35774e-09 1.21095e-09 -7.73091 5.47488 -0.417314 -1.09263e-09 2.35774e-09 1.21094e-09 -2.90554 0.965183 -0.102902 -1.09264e-09 2.35776e-09 1.21094e-09 -10.2786 0.731801 -0.0259123 -1.09262e-09 2.35774e-09 1.21093e-09 -2.22167 -0.733487 0.20892 -2.03217e-16 0.0 -3.88251e-19 -4.27228 -21.7923 -20.2369 -1.17067 62.0468 1.77348 0.736 2.00246 -24.1391 2.03217e-16 0.0 3.88251e-19 21.3088 -33.9981 25.5266 1.5024 64.5257 -1.58617 -1.87855 -5.6593 -19.752
-3.87053 64.3965 28.132 -176.647 -106.375 898.314 0.131933 2.33532 13.72 -3.6066 -10.9713 3.5376 11.1529 5.75753 13.8684 0.293152 -4.75274 24.956 -0.0 0.0 0.0 -0.0 0.0 0.0 2.63798e-14 -7.34227e-14 2.91532e-13 -16.8556 62.5806 45.7396 -24.7462 -48.3725 100.829 -1.46359 -32.167 -5.07143 -5.00689e-11 -7.0822e-09 -2.00802e-09 -3.84625e-11 -1.30775e-08 -3.46902e-09 -5.00608e-11 -7.0822e-09 -2.00803e-09 7.73091 5.47488 0.417314 -5.00669e-11 -7.0822e-09 -2.00802e-09 2.90554 0.965183 0.102902 -5.0055e-11 -7.08221e-09 -2.00802e-09 10.2786 0.731801 0.0259123 -5.00818e-11 -7.08221e-09 -2.00801e-09 2.22167 -0.733487 -0.20892 2.62688e-14 -7.343e-14 2.91295e-13 3.17423 21.668 -21.7087 13.6312 -6.6606 -24.8151 0.00932209 2.72413 -0.38315 -1.04476e-09 -1.81163e-10 1.77805e-09 -1.79766e-09 -3.727e-10 3.0759e-09 -1.04476e-09 -1.81162e-10 1.77806e-09 -7.73091 5.47488 -0.417314 -1.04476e-09 -1.81159e-10 1.77805e-09 -2.90554 0.965183 -0.102902 -1.04477e-09 -1.81141e-10 1.77805e-09 -10.2786 0.731801 -0.0259123 -1.04475e-09 -1.81157e-10 1.77804e-09 -2.22167 -0.733487 0.20892 -2.03217e-16 0.0 -3.88251e-19 -4.38437 -21.555 -19.6052 -1.15899 62.0663 1.81491 0.9421 2.14503 -25.3071 2.03217e-16 0.0 3.88251e-19 21.7832 -33.7803 24.5106 1.44673 64.1091 -1.62101 -1.89726 -6.60353 -16.6984
